<?xml version="1.0" standalone="no"?>
<!DOCTYPE svg PUBLIC "-//W3C//DTD SVG 20010904//EN"
 "http://www.w3.org/TR/2001/REC-SVG-20010904/DTD/svg10.dtd">
<svg version="1.0" xmlns="http://www.w3.org/2000/svg"
 width="949.000000pt" height="949.000000pt" viewBox="0 0 949.000000 949.000000"
 preserveAspectRatio="xMidYMid meet">

<g transform="translate(0.000000,949.000000) scale(0.100000,-0.100000)"
fill="#000000" stroke="none">
<path d="M8733 9389 c-49 -19 -53 -24 -93 -101 -63 -124 -109 -191 -125 -184
-9 3 -15 -1 -15 -9 0 -8 -5 -15 -10 -15 -6 0 -8 -10 -5 -22 5 -18 -13 -46 -79
-129 -92 -116 -123 -144 -141 -129 -17 14 -36 -10 -29 -36 4 -16 -11 -36 -63
-86 -37 -37 -91 -85 -120 -108 -45 -35 -55 -40 -73 -30 -34 18 -41 50 -18 88
l20 33 -28 24 c-16 14 -37 25 -47 25 -49 0 -106 -57 -122 -123 -5 -20 -2 -33
10 -47 22 -25 44 -25 85 -2 25 13 34 14 37 5 3 -9 10 -10 22 -3 26 14 31 3 14
-31 -8 -17 -39 -46 -69 -66 -57 -38 -74 -70 -74 -144 0 -79 -42 -178 -122
-286 -21 -29 -38 -55 -38 -58 0 -23 43 12 138 111 62 64 112 113 112 108 -1
-5 -50 -63 -111 -129 -101 -110 -108 -120 -85 -123 18 -2 23 -8 20 -20 -4 -11
-1 -10 6 3 28 45 185 195 206 195 12 0 38 11 59 25 52 36 54 25 6 -23 -23 -23
-41 -34 -41 -26 0 23 -12 16 -69 -36 -29 -28 -57 -50 -61 -50 -4 0 -20 -18
-35 -39 l-27 -40 20 -21 c12 -13 26 -19 33 -15 6 4 1 -6 -11 -23 -23 -31 -23
-32 -5 -52 10 -11 26 -20 36 -20 11 0 16 -5 13 -13 -6 -16 33 -54 44 -42 4 4
1 10 -5 12 -7 3 -13 13 -13 24 0 20 15 26 25 9 11 -18 26 -10 86 47 32 31 62
53 66 50 3 -4 -16 -28 -43 -54 -26 -27 -58 -63 -71 -80 -23 -34 -22 -63 3 -63
8 0 14 -7 14 -15 0 -22 5 -20 86 34 94 64 159 87 274 100 51 6 94 12 95 13 1
2 21 31 44 66 23 34 48 62 56 62 15 0 38 34 29 43 -8 8 91 130 159 196 52 50
57 53 72 37 14 -14 18 -14 31 -2 16 17 19 36 4 36 -39 0 38 75 203 198 49 36
57 38 57 17 0 -18 14 -19 39 -3 15 9 17 16 9 31 -5 10 -8 20 -6 22 10 8 143
80 205 110 69 34 72 37 93 91 l21 57 -40 66 c-36 60 -55 113 -78 226 -7 34
-15 44 -54 65 -66 36 -78 48 -106 107 -26 55 -41 64 -128 79 -55 9 -123 37
-180 73 -27 17 -51 31 -54 30 -4 0 -29 -9 -58 -20z m-99 -384 c3 -8 1 -15 -4
-15 -6 0 -10 -5 -10 -10 0 -7 6 -7 19 0 26 13 30 4 22 -45 -6 -35 -10 -40 -41
-46 -44 -9 -47 -6 -26 26 15 23 15 26 1 31 -9 4 -19 4 -22 1 -11 -11 -43 14
-43 33 0 13 9 22 28 26 15 3 32 7 37 9 22 7 33 4 39 -10z m-84 -179 c0 -2 -8
-10 -17 -17 -16 -13 -17 -12 -4 4 13 16 21 21 21 13z m-66 -91 c-15 -20 -29
-34 -31 -31 -6 6 39 66 49 66 5 0 -3 -16 -18 -35z m-108 -17 c4 -5 1 -15 -5
-21 -20 -20 -12 -31 9 -12 19 17 20 17 29 -9 14 -35 4 -55 -49 -101 -25 -22
-36 -29 -25 -15 11 14 25 28 30 32 6 5 5 8 -2 8 -7 0 -32 -17 -55 -37 -24 -21
-34 -27 -23 -13 43 52 66 91 60 100 -3 6 -19 10 -35 10 -33 0 -47 26 -25 49
16 19 81 25 91 9z m630 -103 c4 -8 0 -23 -7 -33 -11 -14 -11 -15 1 -4 8 6 22
12 32 12 14 0 16 -7 13 -37 -2 -21 -4 -41 -4 -45 -1 -5 -12 -8 -25 -8 -24 0
-43 29 -38 58 3 14 -24 16 -33 2 -3 -5 -14 -10 -24 -10 -16 0 -17 5 -12 33 6
26 12 32 33 32 14 0 30 3 34 8 12 11 24 8 30 -8z m-755 -122 c-5 -10 -32 -42
-60 -71 -28 -29 -51 -56 -51 -60 0 -4 -25 -34 -55 -67 -30 -32 -55 -54 -55
-48 0 5 9 18 21 29 11 10 25 27 30 36 19 35 -15 18 -69 -33 -65 -61 -79 -61
-16 0 24 25 44 49 44 54 0 5 7 15 17 22 21 16 7 38 -19 29 -34 -10 -56 57 -23
70 8 3 15 1 15 -4 0 -6 10 -6 26 0 14 6 30 8 35 4 13 -8 11 -42 -3 -47 -10 -4
-10 -6 -1 -6 6 -1 15 4 18 9 10 16 33 12 37 -7 2 -12 18 0 58 45 58 65 66 72
51 45z m39 -13 c-6 -11 -16 -20 -22 -20 -6 0 -3 9 7 20 10 11 20 20 22 20 2 0
-1 -9 -7 -20z m490 -14 c0 -2 -8 -10 -17 -17 -16 -13 -17 -12 -4 4 13 16 21
21 21 13z m-70 -85 c0 -23 -8 -34 -36 -50 -19 -12 -48 -21 -64 -21 l-29 0 17
30 c12 22 24 30 44 30 17 0 31 8 38 20 15 29 30 25 30 -9z m36 -68 c-1 -37 -5
-49 -19 -51 -45 -9 -55 54 -14 83 32 22 35 19 33 -32z m-216 -37 c0 -2 -8 -10
-17 -17 -16 -13 -17 -12 -4 4 13 16 21 21 21 13z m-510 -53 c0 -11 -65 -83
-75 -83 -4 0 10 20 31 44 43 48 44 49 44 39z m60 -12 c-10 -20 -30 -37 -30
-27 0 6 33 46 38 46 1 0 -2 -9 -8 -19z m-147 -9 c-10 -10 -20 -17 -22 -16 -6
5 20 34 30 34 5 0 1 -8 -8 -18z m172 -62 c-3 -5 -14 -10 -23 -10 -15 0 -15 2
-2 10 20 13 33 13 25 0z m312 -4 c-3 -7 0 -19 6 -25 8 -8 1 -20 -27 -46 -36
-32 -76 -49 -61 -25 4 6 1 18 -6 27 -11 13 -10 17 6 29 10 8 24 14 30 14 7 0
20 9 30 20 21 23 29 26 22 6z m-307 -63 c0 -17 -12 -16 -35 0 -25 19 -11 41
15 24 11 -6 20 -17 20 -24z m175 17 c-3 -5 -16 -15 -28 -21 -22 -12 -22 -12
-3 10 19 21 43 30 31 11z m183 -56 c-3 -43 -27 -57 -53 -30 -21 20 -19 29 11
61 31 34 47 23 42 -31z m-508 13 c0 -2 -12 -14 -27 -28 -24 -22 -24 -13 0 19
8 11 27 17 27 9z m234 -21 c-3 -8 -13 -17 -22 -21 -13 -5 -13 -2 3 15 21 24
26 25 19 6z m-54 -33 c-1 -5 -16 -26 -35 -48 -27 -32 -33 -35 -28 -17 9 36 64
92 63 65z m-240 -26 c0 -2 -9 -12 -20 -22 -24 -21 -27 -14 -4 9 15 15 24 20
24 13z m150 -41 c0 -2 -8 -10 -17 -17 -16 -13 -17 -12 -4 4 13 16 21 21 21 13z
m-90 -70 c0 -2 -8 -10 -17 -17 -16 -13 -17 -12 -4 4 13 16 21 21 21 13z"/>
<path d="M8385 9259 c-24 -12 -59 -64 -69 -102 -5 -20 -1 -35 15 -57 l22 -29
39 20 c31 16 43 18 54 8 12 -10 17 -8 28 7 10 13 11 21 4 25 -7 5 -3 22 11 50
l23 43 -27 23 c-27 24 -66 29 -100 12z"/>
<path d="M8156 8980 c-15 -5 -41 -23 -57 -41 -37 -42 -46 -89 -24 -123 21 -31
30 -32 73 -6 39 24 49 25 54 6 3 -13 6 -13 22 -1 16 12 17 17 6 30 -10 12 -8
21 9 51 l22 37 -31 29 c-34 31 -32 30 -74 18z"/>
<path d="M9200 8450 c-26 -13 -39 -15 -48 -7 -10 7 -17 6 -29 -6 -14 -13 -14
-19 -3 -32 11 -13 10 -22 -8 -54 l-22 -38 25 -23 c30 -28 76 -22 127 17 34 27
64 73 48 73 -4 0 -6 8 -3 18 4 17 -31 72 -45 72 -4 -1 -23 -9 -42 -20z"/>
<path d="M8907 8204 c-15 -8 -37 -12 -47 -9 -27 9 -60 -22 -39 -36 12 -7 10
-16 -9 -50 -22 -39 -23 -42 -6 -60 35 -39 123 -17 163 40 26 37 27 65 0 102
-23 33 -24 33 -62 13z"/>
<path d="M8636 7944 c-15 -9 -37 -13 -48 -11 -11 3 -29 1 -39 -6 -16 -10 -17
-13 -3 -28 14 -16 13 -21 -7 -57 -23 -40 -23 -41 -5 -61 36 -40 97 -25 154 37
39 44 43 88 9 120 -27 26 -24 25 -61 6z"/>
<path d="M7745 7870 c-3 -4 2 -13 10 -20 15 -13 45 -7 45 9 0 11 -49 21 -55
11z"/>
<path d="M7473 7726 c-197 -195 -431 -424 -544 -532 -52 -49 -94 -95 -91 -102
2 -7 -4 -12 -14 -12 -19 0 -654 -628 -654 -647 0 -7 -7 -13 -15 -13 -13 0 -54
-36 -172 -149 -8 -7 -11 -21 -7 -33 5 -16 2 -19 -14 -14 -15 5 -37 -12 -98
-75 -43 -45 -90 -91 -103 -103 -119 -106 -161 -153 -155 -172 5 -15 4 -16 -5
-4 -8 12 -26 -1 -100 -75 -50 -50 -120 -119 -156 -154 -46 -45 -64 -70 -60
-82 5 -13 1 -16 -13 -12 -22 5 -142 -99 -142 -123 0 -8 -6 -14 -14 -14 -18 0
-126 -105 -126 -121 0 -7 8 -21 17 -31 16 -18 16 -18 0 -12 -9 3 -17 10 -17
15 0 22 -33 5 -86 -45 -52 -49 -57 -56 -44 -72 14 -15 13 -16 -9 -9 -19 6 -32
-1 -72 -41 -27 -27 -49 -53 -49 -59 0 -19 46 -56 61 -50 10 4 15 -1 15 -15 0
-32 -32 -24 -56 15 -12 19 -26 35 -31 35 -6 0 -31 -20 -57 -44 l-47 -45 17
-28 c9 -15 26 -29 37 -31 13 -2 18 -8 14 -19 -3 -8 0 -19 8 -24 11 -7 11 -9 1
-9 -8 0 -30 18 -49 40 -20 22 -41 40 -48 40 -15 0 -95 -82 -95 -98 0 -7 -9
-12 -20 -12 -14 0 -20 7 -20 21 0 11 -4 19 -9 17 -17 -6 -91 -78 -91 -88 0
-19 37 -10 60 15 13 14 28 25 33 25 6 0 -1 -11 -15 -23 -14 -13 -31 -34 -37
-45 -7 -12 -17 -22 -23 -22 -14 0 -88 -77 -88 -91 0 -5 -6 -9 -13 -9 -16 0
-77 -62 -77 -78 0 -7 -6 -12 -13 -12 -15 0 -77 -55 -77 -69 0 -5 -12 -16 -27
-23 -16 -7 -35 -28 -43 -45 -8 -18 -22 -33 -31 -33 -20 0 -49 -31 -49 -52 0
-17 41 -58 58 -58 7 0 12 -6 12 -13 0 -15 44 -57 60 -57 5 0 22 16 37 35 29
36 43 44 43 23 0 -7 -14 -21 -30 -30 -55 -32 -51 -41 74 -166 l117 -116 71 75
c39 41 182 187 317 324 371 377 485 499 472 503 -6 2 -16 13 -23 25 -11 21
-11 21 17 3 l28 -18 216 219 c119 121 279 284 355 364 77 79 220 227 319 328
129 132 176 186 168 194 -17 17 -13 31 5 16 13 -11 28 0 107 79 87 88 91 93
78 114 -13 21 -13 22 2 10 9 -8 21 -10 28 -6 9 5 126 124 188 189 2 3 -2 11
-9 20 -7 9 -8 15 -2 15 6 0 13 -6 15 -12 3 -8 47 29 108 92 242 249 590 610
799 829 96 101 198 207 225 236 95 99 90 90 65 124 -12 17 -25 31 -28 31 -13
0 -527 -519 -530 -535 -4 -19 -32 -20 -32 0 0 8 5 15 10 15 6 0 40 30 76 68
35 37 152 155 259 264 107 108 195 200 195 204 0 10 -199 204 -207 202 -5 -1
-72 -65 -150 -142z m172 64 c-24 -26 -32 -18 -9 9 10 11 20 18 23 16 2 -3 -4
-14 -14 -25z m-133 -131 c-56 -56 -102 -105 -102 -110 0 -5 -9 -13 -19 -19
-18 -9 -89 -79 -240 -234 -30 -31 -59 -56 -64 -56 -13 0 -9 5 244 255 116 116
225 224 243 242 17 17 33 30 35 27 3 -2 -41 -50 -97 -105z m198 91 c0 -5 -10
-15 -22 -21 l-23 -12 20 21 c23 24 25 25 25 12z m60 -54 c0 -2 -8 -10 -17 -17
-16 -13 -17 -12 -4 4 13 16 21 21 21 13z m-167 -51 c-3 -9 -8 -14 -10 -11 -3
3 -2 9 2 15 9 16 15 13 8 -4z m-39 -44 c-10 -10 -21 -17 -23 -15 -6 6 20 34
32 34 6 0 2 -8 -9 -19z m-47 -41 c-32 -46 -81 -93 -85 -82 -2 7 18 32 45 57
54 50 60 54 40 25z m343 7 c0 -2 -19 -21 -42 -42 l-43 -40 40 43 c36 39 45 47
45 39z m-489 -156 c-23 -23 -44 -41 -48 -41 -4 0 13 20 37 45 24 24 46 43 48
41 2 -3 -15 -23 -37 -45z m153 25 c-7 -19 -34 -29 -34 -12 0 7 3 16 7 19 12
13 32 7 27 -7z m-54 -46 c0 -5 -5 -10 -11 -10 -5 0 -7 5 -4 10 3 6 8 10 11 10
2 0 4 -4 4 -10z m-206 -88 c-27 -27 -56 -58 -64 -68 -9 -11 -31 -32 -49 -47
-30 -25 -32 -31 -23 -52 6 -13 20 -26 31 -30 25 -8 26 -24 5 -73 -9 -20 -17
-48 -18 -61 -2 -39 -20 -35 -74 19 -28 27 -55 50 -61 50 -6 0 -28 -19 -51 -42
-22 -23 -40 -36 -40 -29 0 8 16 28 35 45 26 22 40 46 50 84 7 28 9 52 4 52 -5
0 -42 -34 -82 -75 -41 -41 -76 -75 -79 -75 -4 0 -1 11 5 25 7 14 17 25 23 25
5 0 50 41 98 90 49 50 93 90 99 90 7 0 7 -4 -1 -12 -9 -9 -8 -16 5 -30 9 -10
21 -18 27 -18 6 0 54 43 105 95 52 52 97 93 99 90 2 -2 -18 -26 -44 -53z m366
28 c0 -5 -5 -10 -11 -10 -5 0 -7 5 -4 10 3 6 8 10 11 10 2 0 4 -4 4 -10z
m-370 -155 c0 -8 -7 -15 -15 -15 -26 0 -18 20 13 29 1 1 2 -6 2 -14z m110
-115 c0 -5 -4 -10 -10 -10 -5 0 -10 5 -10 10 0 6 5 10 10 10 6 0 10 -4 10 -10z
m-610 -145 c-41 -41 -77 -75 -79 -75 -3 0 28 34 69 75 41 41 77 75 79 75 3 0
-28 -34 -69 -75z m240 0 c-7 -9 -15 -13 -17 -11 -7 7 7 26 19 26 6 0 6 -6 -2
-15z m70 -55 c0 -5 -4 -10 -10 -10 -5 0 -10 5 -10 10 0 6 5 10 10 10 6 0 10
-4 10 -10z m-407 -50 c-3 -11 -14 -20 -24 -20 -23 0 -24 4 -3 24 21 22 33 20
27 -4z m96 -7 c-41 -50 -69 -76 -76 -70 -4 5 13 25 37 47 49 43 60 49 39 23z
m361 3 c0 -3 -4 -8 -10 -11 -5 -3 -10 -1 -10 4 0 6 5 11 10 11 6 0 10 -2 10
-4z m-476 -122 l64 -66 -15 -51 c-9 -29 -15 -62 -15 -74 0 -13 -3 -23 -7 -23
-15 0 -71 48 -103 89 -15 18 -21 19 -38 9 -11 -7 -23 -21 -26 -30 -3 -10 -14
-23 -25 -28 -33 -18 -23 15 14 43 36 28 70 109 60 146 -4 18 11 51 23 51 2 0
33 -30 68 -66z m126 1 c-7 -9 -15 -13 -17 -11 -7 7 7 26 19 26 6 0 6 -6 -2
-15z m-260 -19 c0 -2 -8 -10 -17 -17 -16 -13 -17 -12 -4 4 13 16 21 21 21 13z
m330 -35 c0 -6 -4 -13 -10 -16 -5 -3 -10 1 -10 9 0 9 5 16 10 16 6 0 10 -4 10
-9z m-402 -43 c-7 -19 -38 -22 -38 -4 0 10 9 16 21 16 12 0 19 -5 17 -12z
m452 -18 c0 -5 -4 -10 -10 -10 -5 0 -10 5 -10 10 0 6 5 10 10 10 6 0 10 -4 10
-10z m-522 -39 c-13 -15 -25 -27 -27 -25 -4 4 39 54 47 54 2 0 -7 -13 -20 -29z
m186 -66 c-6 -16 -24 -21 -24 -7 0 11 11 22 21 22 5 0 6 -7 3 -15z m-296 -45
c-7 -11 -16 -20 -20 -20 -5 0 -8 -9 -8 -20 0 -13 -7 -20 -20 -20 -27 0 -25 28
3 39 13 5 29 16 36 25 19 22 24 20 9 -4z m357 -20 c-3 -5 -11 -10 -16 -10 -6
0 -7 5 -4 10 3 6 11 10 16 10 6 0 7 -4 4 -10z m-307 -54 c-10 -7 -18 -17 -18
-23 0 -5 -13 -19 -30 -31 -16 -13 -30 -27 -30 -33 0 -6 14 -27 31 -46 25 -29
29 -41 23 -62 -4 -14 -8 -38 -9 -52 -3 -50 -14 -48 -77 12 -34 32 -64 59 -67
59 -3 0 -17 -16 -30 -35 -27 -39 -41 -45 -41 -15 0 11 6 20 13 20 25 0 44 34
50 88 6 53 1 62 -22 40 -21 -20 -2 12 23 39 20 21 53 33 42 14 -3 -4 6 -19 19
-31 l25 -24 45 47 c24 26 50 47 57 47 8 -1 6 -6 -4 -14z m42 -86 c0 -5 -7 -10
-15 -10 -8 0 -15 5 -15 10 0 6 7 10 15 10 8 0 15 -4 15 -10z m-293 -38 c-15
-16 -27 -33 -27 -40 0 -7 -9 -12 -21 -12 -15 0 -19 5 -15 15 3 8 1 15 -5 15
-6 0 -7 5 -3 11 4 8 9 7 15 -2 6 -11 14 -8 36 11 15 14 30 29 32 33 1 5 6 6 9
3 3 -4 -7 -19 -21 -34z m353 -27 c0 -8 -4 -15 -10 -15 -5 0 -10 7 -10 15 0 8
5 15 10 15 6 0 10 -7 10 -15z m-435 -55 c-10 -11 -22 -20 -27 -20 -10 0 24 38
36 39 5 1 1 -8 -9 -19z m-58 -56 c-12 -14 -31 -31 -42 -37 -11 -6 -5 6 15 26
40 41 61 50 27 11z m133 13 c0 -2 -12 -14 -27 -28 l-28 -24 24 28 c23 25 31
32 31 24z m100 -43 c0 -14 -3 -14 -15 -4 -8 7 -15 14 -15 16 0 2 7 4 15 4 8 0
15 -7 15 -16z m-297 -35 c-6 -6 -9 -17 -6 -24 3 -8 -4 -15 -18 -17 -12 -2 -27
-11 -32 -20 -9 -13 -6 -21 14 -37 13 -11 29 -19 36 -16 7 2 10 -1 8 -8 -6 -15
4 -29 34 -50 37 -25 42 -60 17 -119 -18 -43 -30 -47 -48 -18 -7 11 -19 20 -26
20 -7 0 -17 11 -23 24 -6 13 -22 29 -35 35 -28 13 -40 51 -24 81 6 12 9 32 6
43 -4 16 6 34 39 70 25 26 50 47 57 47 9 0 9 -3 1 -11z m357 -24 c10 -12 10
-15 -4 -15 -9 0 -16 7 -16 15 0 8 2 15 4 15 2 0 9 -7 16 -15z m-298 -45 c-16
-28 -42 -41 -42 -21 0 7 47 49 57 51 1 0 -6 -13 -15 -30z m-206 -80 c-25 -27
-46 -54 -46 -60 0 -6 -4 -9 -9 -6 -5 3 -40 -26 -77 -64 -115 -115 -144 -142
-144 -131 0 11 302 311 313 311 6 0 -11 -22 -37 -50z m259 0 c3 -5 2 -10 -4
-10 -5 0 -13 5 -16 10 -3 6 -2 10 4 10 5 0 13 -4 16 -10z m69 -66 c4 -10 1
-14 -6 -12 -15 5 -23 28 -10 28 5 0 13 -7 16 -16z m-302 -39 c-5 -26 -32 -35
-32 -10 0 10 20 30 36 35 1 0 -1 -11 -4 -25z m362 -26 c-6 -11 -24 -2 -24 11
0 5 7 7 15 4 8 -4 12 -10 9 -15z m-306 -48 c3 -8 -1 -12 -9 -9 -7 2 -15 10
-17 17 -3 8 1 12 9 9 7 -2 15 -10 17 -17z m-222 -87 c-3 -9 -6 -18 -6 -20 0
-2 -7 -4 -15 -4 -18 0 -19 12 -3 28 17 17 31 15 24 -4z m-159 -29 c-23 -22
-33 -18 -12 5 10 11 20 18 23 16 2 -3 -3 -12 -11 -21z m112 -18 c-2 -1 -13 -9
-24 -17 -19 -14 -19 -14 -6 3 7 9 18 17 24 17 6 0 8 -1 6 -3z m-167 -36 c-9
-17 -25 -32 -34 -35 -26 -6 -21 -38 8 -60 26 -18 26 -18 48 6 11 13 35 35 51
48 l30 25 -21 -25 c-12 -14 -24 -33 -27 -42 -4 -10 -13 -18 -21 -18 -33 0 -24
-31 20 -72 40 -37 45 -46 40 -72 -7 -34 -23 -56 -42 -56 -7 0 -36 23 -64 50
-28 28 -56 50 -61 50 -16 0 -22 -29 -10 -44 9 -11 6 -12 -14 -8 -16 3 -25 11
-25 23 0 11 -4 19 -9 19 -5 0 -11 7 -14 14 -4 10 -1 13 9 9 7 -3 14 -9 14 -14
0 -5 7 -9 15 -9 20 0 30 26 17 43 -5 7 -6 21 -1 32 11 27 11 35 -1 35 -9 0
-53 -40 -67 -62 -4 -7 -18 -18 -29 -25 -21 -12 -22 -11 -7 18 8 16 20 29 26
29 16 0 127 111 127 127 0 7 6 13 14 13 7 0 19 7 26 15 20 24 21 18 2 -14z
m28 -62 c0 -4 -7 -6 -15 -3 -8 4 -15 10 -15 15 0 4 7 6 15 3 8 -4 15 -10 15
-15z m-320 -234 c0 -8 -4 -15 -9 -15 -5 0 -24 -12 -42 -27 l-32 -27 29 42 c29
42 54 54 54 27z m270 -5 c0 -5 -4 -10 -9 -10 -6 0 -13 5 -16 10 -3 6 1 10 9
10 9 0 16 -4 16 -10z m28 -45 c-3 -3 -9 2 -12 12 -6 14 -5 15 5 6 7 -7 10 -15
7 -18z m-238 -20 c0 -8 -5 -15 -12 -15 -16 0 -118 -102 -118 -118 0 -7 -7 -15
-15 -18 -23 -9 -18 -22 23 -63 40 -38 44 -54 23 -105 l-12 -29 -27 24 c-15 13
-41 40 -58 58 l-31 35 -19 -22 c-10 -12 -23 -22 -28 -22 -12 0 -91 -81 -99
-102 -3 -10 -13 -18 -22 -18 -28 0 -15 -27 35 -72 45 -41 49 -48 44 -77 -4
-17 -9 -31 -13 -31 -9 0 -74 63 -96 94 -21 29 -55 29 -55 0 0 -8 -4 -14 -10
-14 -5 0 -26 -14 -47 -32 l-38 -32 35 39 c19 22 43 45 53 53 21 17 22 38 1 46
-10 4 -14 14 -11 26 3 11 1 23 -4 26 -15 9 -10 23 10 33 16 9 18 8 14 -8 -3
-11 5 -24 22 -35 29 -19 55 -15 55 9 0 8 6 15 14 15 11 0 39 28 121 120 9 11
11 28 5 65 -7 46 1 85 17 85 4 0 19 -15 35 -32 26 -31 29 -32 42 -15 7 9 18
17 23 17 6 0 37 29 69 64 62 67 74 76 74 51z m274 -1 c4 -10 1 -14 -6 -12 -15
5 -23 28 -10 28 5 0 13 -7 16 -16z m-464 -54 c-12 -23 -35 -26 -43 -6 -4 10 3
16 21 19 15 2 28 5 30 6 1 0 -2 -8 -8 -19z m260 -20 c0 -5 -4 -10 -10 -10 -5
0 -10 5 -10 10 0 6 5 10 10 10 6 0 10 -4 10 -10z m70 -64 c0 -3 -4 -8 -10 -11
-5 -3 -10 -1 -10 4 0 6 5 11 10 11 6 0 10 -2 10 -4z m-200 -67 c0 -14 -17 -10
-23 5 -4 10 -1 13 9 9 7 -3 14 -9 14 -14z m260 1 c0 -5 -2 -10 -4 -10 -3 0 -8
5 -11 10 -3 6 -1 10 4 10 6 0 11 -4 11 -10z m-590 -44 c0 -2 -8 -10 -17 -17
-16 -13 -17 -12 -4 4 13 16 21 21 21 13z m208 -84 c6 -18 -15 -14 -22 4 -4 10
-1 14 6 12 6 -2 14 -10 16 -16z m-370 -87 c5 -25 -29 -15 -39 12 -7 20 -6 21
14 14 12 -5 24 -16 25 -26z m442 14 c0 -4 -7 -6 -15 -3 -8 4 -15 10 -15 15 0
4 7 6 15 3 8 -4 15 -10 15 -15z m-190 -39 c0 -5 -4 -10 -10 -10 -5 0 -10 5
-10 10 0 6 5 10 10 10 6 0 10 -4 10 -10z m250 -20 c0 -5 -4 -10 -10 -10 -5 0
-10 5 -10 10 0 6 5 10 10 10 6 0 10 -4 10 -10z m-610 -44 c0 -8 -4 -17 -9 -21
-12 -7 -24 12 -16 25 9 15 25 12 25 -4z m430 -12 c0 -8 -4 -14 -9 -14 -11 0
-22 26 -14 34 9 9 23 -3 23 -20z m-450 -39 c0 -8 11 -22 24 -30 23 -15 26 -15
46 5 12 12 24 20 26 17 7 -7 -7 -37 -17 -37 -21 0 -6 -34 31 -71 28 -28 40
-48 40 -69 0 -15 3 -37 6 -47 4 -10 -24 13 -62 50 -38 37 -74 71 -80 75 -6 4
-18 21 -27 38 -12 23 -13 34 -4 43 8 8 7 11 -6 11 -20 0 -22 11 -5 28 13 13
28 7 28 -13z m-81 -61 c-9 -11 -15 -12 -23 -4 -8 8 -7 13 4 20 20 12 33 1 19
-16z m421 -14 c0 -5 -4 -10 -10 -10 -5 0 -10 5 -10 10 0 6 5 10 10 10 6 0 10
-4 10 -10z m-184 -37 c-10 -10 -19 5 -10 18 6 11 8 11 12 0 2 -7 1 -15 -2 -18z
m-161 -13 c-3 -5 -15 -15 -26 -21 -19 -10 -20 -9 -9 10 6 12 18 21 26 21 8 0
12 -4 9 -10z m-180 -39 c-15 -18 -14 -20 14 -40 29 -21 32 -21 56 -5 29 19 33
9 8 -18 -15 -17 -15 -20 12 -48 22 -23 31 -27 42 -18 7 6 17 8 20 4 4 -4 2
-10 -4 -14 -9 -6 -8 -21 3 -61 12 -39 13 -56 5 -64 -8 -8 -11 -7 -11 3 0 18
-40 60 -57 60 -7 0 -13 5 -13 12 0 15 -40 58 -53 58 -6 0 -19 -7 -29 -17 -26
-23 -36 -7 -11 18 l20 21 -22 42 c-21 39 -21 43 -6 66 9 14 20 28 26 32 17 13
18 -12 0 -31z m590 29 c3 -5 -1 -10 -9 -10 -9 0 -16 5 -16 10 0 6 4 10 9 10 6
0 13 -4 16 -10z m-165 -40 c0 -5 -4 -10 -10 -10 -5 0 -10 5 -10 10 0 6 5 10
10 10 6 0 10 -4 10 -10z m-180 -30 c0 -5 -5 -10 -11 -10 -5 0 -7 5 -4 10 3 6
8 10 11 10 2 0 4 -4 4 -10z m-320 -29 c0 -5 -7 -11 -15 -15 -9 -3 -15 0 -15 9
0 8 7 15 15 15 8 0 15 -4 15 -9z m395 -41 c-3 -5 -11 -10 -16 -10 -6 0 -7 5
-4 10 3 6 11 10 16 10 6 0 7 -4 4 -10z m-475 -39 c-12 -23 -30 -28 -30 -10 0
12 32 40 38 34 2 -2 -1 -13 -8 -24z m385 -51 c3 -5 -1 -10 -10 -10 -9 0 -13 5
-10 10 3 6 8 10 10 10 2 0 7 -4 10 -10z m-155 -20 c0 -5 -7 -10 -15 -10 -8 0
-15 5 -15 10 0 6 7 10 15 10 8 0 15 -4 15 -10z m225 -50 c3 -5 2 -10 -4 -10
-5 0 -13 5 -16 10 -3 6 -2 10 4 10 5 0 13 -4 16 -10z m-313 -32 c-6 -6 -15 -8
-19 -4 -4 4 -1 11 7 16 19 12 27 3 12 -12z m150 0 c-7 -7 -12 -8 -12 -2 0 6 3
14 7 17 3 4 9 5 12 2 2 -3 -1 -11 -7 -17z m-72 -68 c0 -5 -8 -10 -17 -10 -15
0 -16 2 -3 10 19 12 20 12 20 0z m70 -80 c0 -5 -4 -10 -10 -10 -5 0 -10 5 -10
10 0 6 5 10 10 10 6 0 10 -4 10 -10z"/>
<path d="M7549 7833 c-13 -16 -12 -17 4 -4 9 7 17 15 17 17 0 8 -8 3 -21 -13z"/>
<path d="M7459 7751 c-18 -17 -31 -32 -28 -35 3 -3 21 10 39 29 41 43 35 46
-11 6z"/>
<path d="M7375 7670 c-22 -22 -35 -40 -30 -40 13 1 80 68 74 75 -3 2 -23 -13
-44 -35z"/>
<path d="M7287 7584 c-16 -14 -26 -28 -23 -31 5 -5 19 7 45 40 19 25 10 21
-22 -9z"/>
<path d="M7230 7530 c-9 -6 -10 -10 -3 -10 6 0 15 5 18 10 8 12 4 12 -15 0z"/>
<path d="M7100 7405 c-19 -19 -31 -35 -27 -35 4 0 23 16 43 35 19 19 31 35 26
35 -4 0 -23 -16 -42 -35z"/>
<path d="M6926 7235 c-60 -58 -107 -107 -105 -109 5 -5 219 197 219 207 0 11
0 11 -114 -98z"/>
<path d="M6697 7013 c-101 -97 -118 -116 -111 -123 3 -2 53 44 112 103 59 59
103 107 98 107 -5 0 -49 -39 -99 -87z"/>
<path d="M6454 6776 c-54 -52 -95 -98 -91 -102 4 -5 51 35 104 89 54 53 95 99
91 102 -3 3 -50 -37 -104 -89z"/>
<path d="M6236 6566 c-49 -46 -87 -88 -85 -94 4 -11 189 159 189 173 0 14 -22
-2 -104 -79z"/>
<path d="M6025 6360 c-49 -49 -84 -90 -78 -90 14 0 183 158 183 171 0 20 -20
5 -105 -81z"/>
<path d="M5833 6177 c-42 -41 -74 -79 -72 -85 2 -7 42 26 89 73 103 104 89
114 -17 12z"/>
<path d="M5646 5993 c-46 -45 -74 -79 -67 -81 13 -4 161 135 161 150 0 18 -19
4 -94 -69z"/>
<path d="M5477 5832 c-69 -69 -77 -82 -54 -82 13 0 147 132 147 144 0 20 -34
-3 -93 -62z"/>
<path d="M5321 5678 c-64 -58 -85 -88 -62 -88 5 0 39 30 75 66 59 59 77 84 61
84 -3 0 -37 -28 -74 -62z"/>
<path d="M5161 5524 c-59 -55 -72 -74 -50 -74 13 0 129 109 129 122 0 18 -21
6 -79 -48z"/>
<path d="M3485 5538 c-56 -12 -155 -49 -161 -59 -7 -12 -2 -11 39 6 20 8 46
15 58 15 25 0 27 12 -35 -165 -26 -71 -66 -188 -90 -260 -109 -324 -366 -1059
-424 -1210 -63 -165 -68 -165 123 25 l175 175 55 160 c31 88 71 203 89 255 19
52 80 228 136 390 55 162 116 338 135 390 18 52 43 125 55 162 30 91 39 102
71 89 40 -15 109 -99 109 -132 0 -16 5 -29 10 -29 10 0 6 32 -11 78 -12 32
-63 79 -107 98 -43 19 -169 26 -227 12z"/>
<path d="M3258 5445 c-68 -45 -172 -159 -222 -244 -56 -96 -80 -151 -160 -376
-87 -243 -145 -357 -220 -428 -118 -114 -228 -143 -553 -146 l-82 -1 57 -52
c31 -29 91 -88 133 -132 88 -90 66 -87 244 -31 144 45 192 56 268 60 32 2 61
5 63 8 7 6 293 837 412 1192 34 104 52 134 98 162 10 6 15 12 9 12 -5 0 -27
-11 -47 -24z"/>
<path d="M5017 5382 c-54 -55 -66 -72 -49 -72 12 0 122 107 122 119 0 21 -16
11 -73 -47z"/>
<path d="M3822 5300 c0 -14 2 -19 5 -12 2 6 2 18 0 25 -3 6 -5 1 -5 -13z"/>
<path d="M4883 5251 c-48 -43 -66 -71 -45 -71 13 0 105 98 101 108 -2 5 -28
-11 -56 -37z"/>
<path d="M3799 5234 c-5 -15 -8 -29 -5 -31 2 -2 8 10 14 26 13 38 5 41 -9 5z"/>
<path d="M4747 5122 c-49 -50 -56 -62 -34 -62 13 0 107 90 107 103 0 19 -30 2
-73 -41z"/>
<path d="M3740 5100 c-6 -11 -8 -20 -6 -20 3 0 10 9 16 20 6 11 8 20 6 20 -3
0 -10 -9 -16 -20z"/>
<path d="M4627 5003 c-34 -32 -45 -49 -38 -56 8 -8 24 2 56 33 41 40 57 70 38
70 -5 0 -30 -21 -56 -47z"/>
<path d="M4513 4897 c-43 -43 -54 -67 -30 -67 19 0 100 87 93 99 -11 17 -18
13 -63 -32z"/>
<path d="M3671 4849 c-5 -122 121 -265 269 -302 29 -8 55 -18 57 -24 4 -10
-140 -153 -154 -153 -5 0 -22 14 -38 30 -16 17 -38 30 -49 30 -16 0 -18 -2 -7
-9 7 -5 11 -13 7 -19 -3 -6 0 -12 6 -15 7 -2 10 -8 6 -12 -4 -4 -20 0 -36 8
l-30 14 -126 -126 c-100 -100 -126 -132 -124 -151 2 -18 -3 -25 -20 -29 -24
-6 -24 -6 12 -44 20 -21 36 -44 36 -50 0 -17 -422 -437 -438 -437 -8 0 -32 16
-54 35 -45 38 -67 38 -42 -1 9 -13 14 -27 10 -31 -3 -3 -6 -2 -6 4 0 5 -14 10
-32 10 -34 0 -44 -9 -212 -185 -56 -58 -67 -74 -57 -86 10 -12 8 -16 -9 -21
-12 -4 -24 -4 -27 -1 -4 3 -13 0 -21 -6 -12 -11 -47 21 -212 192 l-197 204
-35 -30 c-32 -28 -43 -31 -129 -37 -96 -5 -159 -22 -329 -87 -47 -18 -126 -47
-177 -64 -51 -17 -92 -34 -93 -38 0 -3 91 -100 203 -215 112 -114 245 -252
297 -305 52 -55 101 -98 111 -98 11 0 19 -7 19 -16 0 -12 7 -15 30 -12 19 3
31 0 35 -10 8 -20 -14 -44 -35 -37 -25 8 -50 -4 -43 -21 3 -8 9 -12 13 -9 5 3
12 0 16 -6 5 -9 -1 -10 -19 -5 -14 3 -29 1 -32 -4 -4 -6 -11 -8 -16 -5 -17 11
-9 -60 11 -92 11 -18 22 -33 26 -33 3 0 20 12 37 26 34 28 48 84 22 84 -8 0
-15 5 -15 10 0 13 6 13 31 0 16 -9 21 -7 27 10 7 20 9 20 21 6 12 -15 15 -15
26 1 11 15 15 14 40 -13 15 -16 31 -28 36 -26 5 1 9 -1 10 -5 0 -5 2 -16 4
-26 2 -12 -10 -26 -36 -42 -45 -29 -49 -30 -49 -10 0 8 3 15 8 15 4 0 13 9 20
21 8 12 9 18 3 14 -7 -3 -11 2 -11 14 0 12 -4 21 -9 21 -6 0 -40 -29 -76 -65
-37 -36 -74 -65 -83 -65 -9 0 -323 -311 -700 -690 -376 -380 -690 -690 -696
-690 -20 0 -156 177 -156 202 0 7 37 49 81 95 45 46 79 86 76 89 -3 3 -51 -10
-107 -30 -117 -42 -135 -44 -150 -15 -7 11 -14 18 -17 15 -5 -4 26 -60 49 -91
4 -5 38 -55 74 -110 110 -165 304 -397 414 -495 40 -36 78 -70 84 -75 83 -77
265 -219 381 -296 161 -108 427 -227 608 -274 215 -55 320 -69 532 -68 176 0
215 3 325 26 234 49 448 130 577 218 23 16 44 29 48 29 17 0 201 148 267 215
l75 76 -53 51 c-30 28 -54 55 -54 60 0 11 50 32 72 29 9 -1 19 3 23 9 3 5 1
10 -5 10 -17 0 -6 25 11 25 19 1 39 14 39 26 0 6 -8 6 -20 -1 -15 -8 -20 -8
-20 2 0 22 17 42 24 29 12 -19 26 -12 26 14 0 19 -4 23 -17 18 -16 -6 -16 -5
-5 10 16 19 6 61 -13 53 -8 -3 -11 2 -8 13 3 14 -6 22 -36 35 -23 9 -53 16
-67 16 -57 0 -111 -51 -129 -123 l-11 -40 -194 183 c-107 101 -194 186 -193
189 2 9 24 19 55 26 19 3 26 10 22 20 -5 11 1 15 20 15 14 0 26 5 26 10 0 6
-4 10 -10 10 -11 0 -13 30 -4 54 9 23 23 20 17 -3 -3 -10 0 -22 6 -25 6 -4 10
13 10 46 -1 40 -7 61 -25 85 -26 35 -90 59 -128 49 -38 -10 -95 -66 -108 -107
-6 -22 -15 -39 -20 -39 -9 0 -282 252 -293 271 -11 17 -23 9 -35 -23 -6 -18
-42 -121 -80 -228 -280 -801 -260 -751 -290 -743 -24 6 -25 12 -4 28 23 16 1
59 -27 52 -10 -3 -19 0 -19 5 0 6 -9 3 -20 -7 -11 -10 -23 -16 -26 -12 -3 3
17 72 46 154 100 283 260 746 260 751 0 15 -332 -327 -346 -357 -17 -34 -71
-184 -145 -401 -22 -63 -46 -131 -54 -150 -8 -19 -37 -102 -65 -185 -28 -82
-57 -166 -65 -185 -7 -19 -21 -56 -31 -82 -13 -38 -21 -48 -39 -48 -41 0 -320
134 -329 157 -3 7 13 65 35 129 22 64 37 119 34 122 -3 3 -46 -35 -96 -84 -50
-49 -96 -88 -103 -88 -14 1 -166 114 -186 139 -11 13 15 44 196 228 115 117
218 221 229 233 200 209 953 954 963 954 8 0 28 16 45 35 16 19 35 35 42 35 7
0 15 9 18 21 5 17 10 19 44 13 21 -3 44 -13 51 -22 6 -9 12 -12 12 -6 0 5 5 1
11 -8 5 -10 17 -18 24 -18 14 0 19 -12 16 -32 0 -5 6 -8 15 -8 12 0 14 -7 9
-28 -5 -25 4 -37 92 -122 54 -52 168 -162 253 -245 259 -250 259 -250 264
-234 2 8 40 115 84 239 91 256 103 299 106 405 l3 76 -36 27 c-53 38 -91 74
-91 86 0 6 19 -8 43 -30 98 -92 165 -119 297 -119 81 0 102 4 140 24 70 37
115 77 155 137 66 99 88 171 130 419 26 153 77 296 167 471 182 354 163 307
162 414 -1 103 -23 210 -73 356 -22 65 -27 91 -19 101 19 23 25 14 31 -45 7
-69 29 -124 68 -173 34 -43 35 -48 13 -63 -14 -11 -15 -23 -4 -107 11 -90 8
-145 -16 -226 -6 -22 -6 -22 77 6 46 16 161 57 254 91 357 130 541 193 568
194 35 1 34 17 -4 61 -84 96 -191 92 -401 -16 -94 -48 -148 -63 -223 -63 -89
0 -149 27 -215 94 -65 67 -93 139 -92 243 0 42 -2 77 -4 77 -2 0 -52 -49 -110
-110 -59 -60 -112 -110 -119 -110 -7 0 -66 54 -131 120 -65 66 -122 120 -127
120 -12 0 -82 -81 -87 -103 -3 -12 -16 -24 -27 -27 -12 -3 -77 -58 -143 -123
-67 -65 -124 -117 -126 -114 -2 2 51 61 119 130 89 91 123 132 123 149 -1 18
5 23 24 24 14 1 43 19 67 41 l42 39 -68 67 c-68 68 -91 80 -91 50 0 -15 -126
-143 -141 -143 -10 0 -94 -110 -92 -120 2 -5 -3 -7 -11 -4 -13 5 -46 -18 -92
-65 -13 -13 -27 -21 -31 -18 -3 4 12 24 34 44 22 21 42 46 46 56 4 9 11 17 16
17 5 0 13 9 16 20 3 11 11 20 17 20 13 0 78 56 114 99 26 31 26 33 6 27 -16
-5 -22 -3 -22 7 0 18 33 33 38 18 6 -19 20 -12 66 33 39 37 43 46 31 56 -8 7
-15 20 -15 29 0 9 47 60 105 115 58 54 109 106 114 115 8 14 -2 16 -92 16 -85
0 -109 4 -147 22 -96 47 -169 143 -189 245 -6 29 -9 34 -10 17z m155 -541 c4
-7 2 -14 -6 -16 -7 -3 -49 -39 -93 -81 -43 -42 -100 -96 -126 -121 -26 -25
-50 -52 -53 -60 -5 -12 -8 -13 -19 -2 -11 11 10 36 127 152 77 77 145 140 152
140 6 0 14 -5 18 -12z m-172 -83 c8 -22 -21 -40 -39 -25 -18 15 -20 37 -2 43
17 6 34 -2 41 -18z m288 -111 c-22 -25 -58 -58 -79 -73 -21 -16 -71 -63 -111
-105 -66 -68 -92 -88 -92 -70 0 3 44 50 98 103 53 54 103 105 111 114 12 15
12 17 -3 11 -10 -4 -16 -1 -16 9 0 20 31 31 41 15 6 -9 18 -2 45 27 51 56 56
27 6 -31z m-462 -34 c0 -5 -4 -10 -10 -10 -5 0 -10 5 -10 10 0 6 5 10 10 10 6
0 10 -4 10 -10z m650 -68 c0 -4 -10 -12 -22 -17 -13 -6 -27 -23 -33 -40 -14
-43 -24 -55 -44 -55 -9 0 -59 -43 -110 -95 -52 -52 -95 -95 -97 -95 -16 0 9
31 90 111 59 59 95 103 98 119 2 19 10 26 31 28 15 2 35 14 45 27 16 23 42 34
42 17z m70 -72 c0 -5 -4 -10 -10 -10 -5 0 -10 5 -10 10 0 6 5 10 10 10 6 0 10
-4 10 -10z m270 -50 c0 -5 -7 -10 -16 -10 -8 0 -12 5 -9 10 3 6 10 10 16 10 5
0 9 -4 9 -10z m-325 -30 c0 -21 -5 -25 -31 -27 -23 -1 -30 3 -29 16 2 28 16
42 38 39 16 -2 22 -10 22 -28z m-621 7 c-2 -7 -14 -19 -27 -26 -21 -13 -21
-12 2 13 27 29 33 32 25 13z m966 -2 c0 -8 -7 -15 -15 -15 -16 0 -20 12 -8 23
11 12 23 8 23 -8z m-220 -5 c0 -5 -4 -10 -10 -10 -5 0 -10 5 -10 10 0 6 5 10
10 10 6 0 10 -4 10 -10z m-53 -46 c-3 -4 -2 -15 3 -24 13 -24 -16 -52 -31 -29
-5 8 -9 10 -9 4 0 -11 -20 16 -20 28 0 4 10 12 23 17 26 11 43 12 34 4z m116
-39 c-17 -30 -256 -265 -270 -265 -15 0 -18 17 -3 22 20 7 243 234 251 257 7
17 13 21 20 14 7 -7 8 -17 2 -28z m-273 21 c0 -3 -4 -8 -10 -11 -5 -3 -10 -1
-10 4 0 6 5 11 10 11 6 0 10 -2 10 -4z m-650 -41 c-7 -9 -15 -13 -19 -10 -3 3
1 10 9 15 21 14 24 12 10 -5z m1018 -27 c4 1 7 -4 7 -10 0 -7 -8 -14 -17 -16
-11 -2 -18 3 -18 11 0 9 -5 17 -12 19 -7 3 -8 9 -3 18 6 10 11 9 22 -6 8 -10
17 -18 21 -16z m-1058 -12 c0 -3 -4 -8 -10 -11 -5 -3 -10 -1 -10 4 0 6 5 11
10 11 6 0 10 -2 10 -4z m592 -18 c-7 -7 -12 -8 -12 -2 0 6 3 14 7 17 3 4 9 5
12 2 2 -3 -1 -11 -7 -17z m-302 8 c0 -2 -8 -10 -17 -17 -16 -13 -17 -12 -4 4
13 16 21 21 21 13z m-339 -35 c-12 -12 -21 -18 -21 -14 0 10 33 44 37 39 3 -2
-5 -14 -16 -25z m289 -14 c0 -2 -15 -16 -32 -33 l-33 -29 29 33 c28 30 36 37
36 29z m310 -7 c0 -5 -7 -10 -15 -10 -8 0 -15 5 -15 10 0 6 7 10 15 10 8 0 15
-4 15 -10z m340 -36 c11 -12 10 -18 -3 -31 -13 -13 -19 -14 -31 -3 -22 18 -20
50 3 50 10 0 24 -7 31 -16z m-260 -44 c0 -5 -7 -10 -15 -10 -8 0 -15 5 -15 10
0 6 7 10 15 10 8 0 15 -4 15 -10z m-840 -54 c0 -2 -8 -10 -17 -17 -16 -13 -17
-12 -4 4 13 16 21 21 21 13z m454 -21 c-4 -8 -11 -15 -16 -15 -6 0 -5 6 2 15
7 8 14 15 16 15 2 0 1 -7 -2 -15z m-596 -12 c2 -7 -4 -13 -14 -13 -9 0 -76
-58 -149 -130 -72 -71 -134 -130 -138 -130 -24 0 9 42 127 159 129 128 162
149 174 114z m102 -7 c0 -3 -4 -8 -10 -11 -5 -3 -10 -1 -10 4 0 6 5 11 10 11
6 0 10 -2 10 -4z m460 -9 c0 -2 -10 -12 -22 -23 l-23 -19 19 23 c18 21 26 27
26 19z m538 -19 c-6 -18 -28 -21 -28 -4 0 9 7 16 16 16 9 0 14 -5 12 -12z
m-1037 -12 c-7 -8 -55 -56 -107 -107 -52 -51 -94 -98 -94 -105 0 -8 -10 -18
-22 -25 -13 -6 -38 -25 -55 -42 -47 -44 -52 -26 -6 20 34 34 37 41 25 53 -12
11 -12 14 3 23 12 7 20 5 26 -4 6 -11 36 13 115 94 59 59 111 107 117 107 5 0
4 -6 -2 -14z m-246 -16 c4 -6 4 -18 1 -26 -4 -12 -10 -13 -26 -4 -11 6 -20 17
-20 25 0 17 36 20 45 5z m1315 3 c0 -5 -4 -14 -9 -22 -11 -17 -32 -5 -24 14 5
15 33 21 33 8z m-699 -92 c-28 -32 -69 -75 -91 -95 -22 -20 -40 -38 -40 -41 0
-3 -43 -47 -95 -97 -53 -51 -98 -102 -101 -115 -4 -13 -10 -23 -14 -23 -16 0
-135 -109 -169 -154 -19 -25 -41 -46 -48 -46 -7 0 -13 -4 -13 -8 0 -12 -88
-102 -100 -102 -5 0 -10 3 -10 6 0 8 73 98 88 107 6 4 12 17 12 29 0 15 5 19
20 15 21 -5 51 20 131 111 32 37 45 59 42 73 -4 15 0 19 22 19 22 0 52 25 145
118 64 64 120 119 125 122 4 3 37 35 73 73 36 37 67 67 70 67 2 0 -19 -26 -47
-59z m349 45 c0 -2 -8 -10 -17 -17 -16 -13 -17 -12 -4 4 13 16 21 21 21 13z
m-640 -25 c0 -12 -42 -42 -49 -36 -5 6 29 45 41 45 4 0 8 -4 8 -9z m124 -26
c-4 -8 -11 -15 -16 -15 -6 0 -5 6 2 15 7 8 14 15 16 15 2 0 1 -7 -2 -15z
m-199 -45 c-10 -11 -21 -18 -23 -15 -3 3 3 12 14 20 27 20 30 18 9 -5z m59
-97 c-54 -54 -105 -110 -111 -125 -7 -16 -19 -28 -27 -28 -8 0 -29 -14 -45
-32 -17 -18 -33 -29 -37 -26 -3 4 8 21 25 38 18 18 31 42 31 56 0 20 5 24 29
24 23 0 45 18 117 94 49 52 95 95 103 95 8 1 -30 -43 -85 -96z m516 54 c0 -2
-10 -12 -22 -23 l-23 -19 19 23 c18 21 26 27 26 19z m-702 -91 c-5 -13 -23
-30 -39 -40 -16 -9 -34 -26 -39 -37 -11 -20 -30 -26 -30 -10 0 6 13 24 30 42
20 22 26 36 20 44 -15 18 6 32 40 27 26 -4 28 -6 18 -26z m467 2 c-16 -18 -73
-78 -126 -133 -53 -55 -100 -110 -104 -122 -3 -13 -13 -23 -21 -23 -8 0 -31
-16 -51 -37 -23 -22 -38 -32 -41 -24 -2 7 10 28 28 46 17 18 33 40 34 50 1 10
11 20 21 21 10 2 52 36 94 78 111 109 183 176 189 176 3 0 -7 -15 -23 -32z
m-998 -68 c-28 -27 -52 -48 -55 -45 -9 9 70 95 87 95 14 0 5 -14 -32 -50z
m1138 -4 c-10 -14 -22 -26 -27 -26 -9 0 -2 13 27 46 17 21 17 7 0 -20z m-865
-10 c0 -2 -8 -10 -17 -17 -16 -13 -17 -12 -4 4 13 16 21 21 21 13z m-216 -15
c3 -4 -6 -13 -19 -19 -25 -12 -42 -1 -30 18 8 12 42 13 49 1z m892 -118 c-53
-54 -96 -106 -96 -115 0 -10 -14 -24 -34 -32 -18 -8 -40 -23 -47 -33 -8 -11
-20 -23 -26 -27 -23 -13 -14 8 16 40 16 17 31 42 33 55 2 16 10 24 23 25 11 1
64 46 120 103 55 56 101 98 103 92 2 -5 -40 -54 -92 -108z m-718 79 c2 -13 -2
-22 -10 -22 -7 0 -44 -32 -83 -70 -38 -39 -73 -70 -77 -70 -16 0 -7 17 22 45
17 16 30 33 30 38 0 6 17 26 37 46 21 20 38 39 39 44 1 4 2 10 3 13 3 15 36
-4 39 -24z m-95 -27 c-19 -25 -33 -32 -33 -16 0 13 29 41 41 41 6 0 2 -11 -8
-25z m957 -19 c0 -16 -35 -58 -125 -147 -114 -113 -155 -145 -155 -122 0 5 59
67 130 138 72 71 130 135 130 142 0 7 5 13 10 13 6 0 10 -11 10 -24z m-1003
-36 c-6 -11 -17 -20 -24 -20 -17 0 -16 10 3 31 21 24 37 14 21 -11z m143 5 c0
-8 -9 -19 -20 -25 -11 -6 -20 -17 -20 -24 0 -7 -11 -25 -25 -40 -23 -25 -27
-26 -41 -11 -15 15 -12 20 37 70 52 52 69 59 69 30z m88 2 c2 -9 -4 -20 -15
-24 -10 -4 -47 -35 -82 -70 -91 -91 -107 -78 -21 17 40 44 69 80 65 80 -3 0
-3 5 0 11 10 16 49 6 53 -14z m862 -19 c13 -16 15 -27 8 -35 -15 -18 -30 -5
-22 19 5 17 3 20 -10 15 -10 -4 -16 -1 -16 8 0 22 19 18 40 -7z m-876 -44 c21
-8 20 -27 -2 -47 -21 -19 -32 -13 -32 18 0 32 8 39 34 29z m100 -2 c2 -4 2
-13 -2 -18 -13 -20 -165 -154 -175 -154 -5 0 9 21 31 48 21 26 47 59 57 75 9
15 24 27 31 27 8 0 14 7 14 15 0 16 35 21 44 7z m-134 -77 c0 -6 -9 -20 -20
-30 -19 -17 -22 -18 -37 -2 -16 15 -15 18 7 42 18 19 26 22 37 14 7 -6 13 -17
13 -24z m739 6 c17 -11 7 -41 -13 -41 -13 0 -26 20 -26 41 0 11 21 11 39 0z
m-611 -22 c1 -8 -17 -36 -42 -64 -37 -42 -45 -47 -51 -33 -4 10 -11 15 -16 12
-15 -9 -9 10 10 34 21 25 37 28 44 10 3 -7 6 -2 6 13 2 42 42 65 49 28z m182
-64 c-5 -14 -24 -38 -42 -54 -18 -16 -48 -43 -65 -60 -31 -30 -53 -39 -53 -23
0 4 21 30 46 57 25 28 49 60 54 72 6 13 20 23 37 26 15 2 29 5 30 6 1 0 -2
-10 -7 -24z m-95 -5 c7 -11 -18 -40 -34 -40 -6 0 -8 -6 -5 -13 2 -7 -7 -24
-21 -37 -23 -21 -27 -22 -41 -9 -13 14 -10 20 28 62 43 47 61 56 73 37z m205
-35 c-18 -19 -31 -38 -27 -41 9 -10 -13 -35 -24 -28 -5 3 -9 0 -9 -6 0 -15
-36 -61 -42 -55 -3 3 -15 -6 -28 -20 -23 -25 -50 -33 -50 -16 0 4 11 17 25 27
14 10 25 24 25 30 0 7 14 24 30 37 17 14 30 30 30 36 0 6 9 11 19 11 11 0 30
13 43 29 13 17 27 30 32 30 6 1 -5 -15 -24 -34z m-1070 -47 c0 -5 -6 -8 -14
-8 -16 0 -38 24 -30 33 7 7 44 -14 44 -25z m960 3 c0 -3 -22 -30 -48 -60 -48
-54 -72 -61 -72 -22 0 24 20 40 53 43 22 2 25 6 20 29 -5 24 -3 26 21 22 14
-3 26 -8 26 -12z m304 -10 c15 -16 15 -19 1 -31 -13 -10 -15 -9 -15 10 0 16
-4 20 -15 16 -9 -3 -15 0 -15 9 0 21 24 19 44 -4z m-244 -60 c0 -6 -8 -16 -17
-23 -10 -7 -23 -22 -29 -32 -13 -25 -41 -43 -50 -33 -5 4 12 27 37 52 44 44
59 53 59 36z m-940 -16 c0 -8 -7 -15 -16 -15 -14 0 -14 3 -4 15 7 8 14 15 16
15 2 0 4 -7 4 -15z m220 -10 c0 -17 -9 -29 -31 -40 -17 -9 -33 -15 -35 -12 -2
2 3 20 11 40 18 45 55 53 55 12z m980 10 c0 -8 -2 -15 -4 -15 -2 0 -6 7 -10
15 -3 8 -1 15 4 15 6 0 10 -7 10 -15z m20 -46 c0 -6 -4 -7 -10 -4 -5 3 -10 11
-10 16 0 6 5 7 10 4 6 -3 10 -11 10 -16z m-1181 2 c9 -6 10 -10 2 -16 -16 -9
-44 2 -36 15 8 12 16 12 34 1z m931 -12 c0 -5 -11 -9 -25 -9 -24 0 -32 10 -19
22 8 8 44 -3 44 -13z m-670 -26 c0 -18 -37 -63 -52 -63 -10 0 -5 51 7 69 10
18 45 13 45 -6z m700 2 c0 -16 -27 -32 -37 -21 -7 7 16 36 28 36 5 0 9 -7 9
-15z m70 1 c0 -18 -77 -102 -86 -94 -5 6 73 106 84 108 1 0 2 -6 2 -14z m190
-47 c0 -18 -10 -8 -25 24 l-16 32 21 -24 c11 -13 20 -27 20 -32z m-1125 1 c8
-14 -21 -24 -42 -15 -17 7 -16 8 2 15 27 12 33 12 40 0z m243 -41 c3 -17 -22
-49 -38 -49 -14 0 -20 31 -9 51 12 23 42 21 47 -2z m-218 1 c0 -5 -4 -10 -10
-10 -5 0 -10 5 -10 10 0 6 5 10 10 10 6 0 10 -4 10 -10z m1675 -30 c19 -21 14
-50 -10 -50 -18 0 -19 11 -2 29 10 11 8 11 -10 2 -24 -12 -39 0 -29 24 8 21
30 19 51 -5z m-1630 -20 c-3 -5 -13 -10 -21 -10 -8 0 -14 5 -14 10 0 6 9 10
21 10 11 0 17 -4 14 -10z m243 -12 c20 -20 14 -48 -14 -58 -36 -14 -43 -6 -30
35 11 37 24 43 44 23z m922 -58 c0 -5 -2 -10 -4 -10 -3 0 -8 5 -11 10 -3 6 -1
10 4 10 6 0 11 -4 11 -10z m-1075 -10 c-3 -5 -15 -10 -26 -10 -11 0 -17 5 -14
10 3 6 15 10 26 10 11 0 17 -4 14 -10z m232 -12 c37 -26 50 -48 27 -48 -8 0
-27 -8 -42 -17 l-27 -18 19 29 19 29 -32 -22 c-31 -23 -44 -15 -15 10 10 8 13
21 9 36 -7 29 0 29 42 1z m-197 -29 c0 -5 -4 -9 -10 -9 -5 0 -10 7 -10 16 0 8
5 12 10 9 6 -3 10 -10 10 -16z m50 -39 c0 -5 -9 -10 -21 -10 -11 0 -17 5 -14
10 3 6 13 10 21 10 8 0 14 -4 14 -10z m220 1 c0 -11 -31 -24 -39 -16 -3 3 1
10 9 15 19 12 30 12 30 1z m-190 -41 c0 -11 -4 -20 -10 -20 -5 0 -10 9 -10 20
0 11 5 20 10 20 6 0 10 -9 10 -20z m50 -40 c0 -5 -9 -10 -21 -10 -11 0 -17 5
-14 10 3 6 13 10 21 10 8 0 14 -4 14 -10z m835 -30 c8 -13 -31 -50 -54 -50
-26 0 -31 10 -20 38 6 16 16 22 38 22 16 0 32 -4 36 -10z m85 -55 c8 -9 10
-28 6 -50 -8 -39 -45 -65 -93 -65 l-28 0 33 20 c39 24 57 63 42 91 -9 16 -7
19 8 19 11 0 25 -7 32 -15z m-370 -515 c0 -5 -4 -10 -10 -10 -5 0 -10 5 -10
10 0 6 5 10 10 10 6 0 10 -4 10 -10z m-229 -653 c-13 -13 -31 0 -24 19 4 11 8
12 20 3 9 -8 10 -16 4 -22z m179 -97 c0 -5 -7 -10 -16 -10 -8 0 -12 5 -9 10 3
6 10 10 16 10 5 0 9 -4 9 -10z m-846 -95 c24 -18 66 -20 66 -3 0 6 3 8 7 5 3
-4 13 -1 21 5 13 11 14 8 10 -22 -7 -48 -157 -472 -173 -489 -11 -11 -20 -11
-46 -2 -17 6 -43 11 -56 11 -13 0 -26 7 -29 15 -5 12 144 457 163 488 6 10 15
8 37 -8z"/>
<path d="M4255 4649 c-80 -78 -107 -120 -69 -105 26 10 73 50 73 63 1 7 11 18
23 24 29 16 78 64 78 78 0 31 -29 14 -105 -60z"/>
<path d="M4066 4464 c-42 -42 -76 -80 -76 -85 0 -29 74 16 85 51 4 11 11 20
18 20 18 0 67 52 67 72 0 31 -16 21 -94 -58z"/>
<path d="M3945 4340 c-16 -16 -25 -33 -22 -37 10 -9 55 16 62 35 11 30 -12 32
-40 2z"/>
<path d="M1536 4229 c-38 -4 -80 -12 -95 -17 -14 -6 -53 -15 -86 -22 -135 -27
-262 -77 -405 -162 l-85 -50 160 -158 159 -159 31 13 c66 27 135 1 156 -59 7
-19 20 -35 28 -35 31 0 189 54 268 91 130 62 293 181 293 214 0 6 -69 83 -152
170 -84 87 -152 165 -152 172 2 14 -14 15 -120 2z"/>
<path d="M2580 4049 c-41 -11 -130 -38 -198 -60 -155 -51 -151 -50 -251 -56
l-84 -6 -76 -76 c-110 -110 -284 -210 -474 -272 -118 -38 -136 -38 -143 1 -21
101 -142 108 -174 10 -20 -60 2 -102 66 -124 92 -31 165 -19 389 63 266 98
319 112 411 112 57 0 57 1 118 62 124 126 351 246 532 282 29 6 33 3 50 -32
25 -51 64 -65 102 -36 50 37 38 108 -23 138 -45 21 -153 18 -245 -6z"/>
<path d="M2600 3931 c-79 -25 -172 -70 -168 -81 4 -12 179 -190 187 -190 8 0
101 252 101 274 0 21 -47 20 -120 -3z"/>
<path d="M563 3722 c-58 -61 -81 -91 -182 -227 -41 -55 -136 -242 -173 -340
-101 -267 -140 -523 -119 -781 12 -135 23 -210 35 -221 3 -3 11 -1 18 4 7 5
33 17 58 25 25 9 119 43 210 77 91 33 255 92 365 131 110 39 335 120 500 179
165 60 324 116 353 127 28 10 52 22 52 27 0 5 -87 98 -193 206 -106 108 -262
268 -347 356 -303 314 -494 505 -505 504 -5 0 -38 -30 -72 -67z"/>
<path d="M5541 3614 c0 -11 3 -14 6 -6 3 7 2 16 -1 19 -3 4 -6 -2 -5 -13z"/>
<path d="M5512 3411 c-6 -17 -9 -31 -6 -31 7 0 25 52 20 57 -2 2 -8 -10 -14
-26z"/>
<path d="M5454 3285 c-13 -17 -54 -36 -134 -64 -63 -22 -155 -54 -205 -71 -49
-18 -214 -75 -365 -127 -151 -52 -304 -105 -340 -117 -62 -22 -65 -25 -78 -67
-7 -24 -26 -119 -42 -211 -17 -92 -36 -186 -44 -210 -8 -24 -17 -56 -21 -72
-3 -17 -15 -42 -26 -57 -10 -15 -19 -29 -19 -32 0 -2 -16 -21 -36 -42 l-36
-39 68 -65 69 -66 7 140 c13 262 47 364 158 474 74 73 160 118 365 191 268 95
369 138 429 182 22 15 45 28 51 28 18 0 172 160 201 208 28 47 28 54 -2 17z"/>
<path d="M122 2120 c0 -14 2 -19 5 -12 2 6 2 18 0 25 -3 6 -5 1 -5 -13z"/>
<path d="M1185 2120 c-27 -10 -140 -50 -250 -88 -204 -72 -334 -119 -554 -199
-89 -33 -129 -43 -140 -36 -8 5 -22 30 -30 55 -16 47 -31 71 -31 50 0 -46 172
-403 187 -388 3 3 -2 15 -11 28 -9 12 -16 28 -16 34 0 6 78 39 172 73 95 34
182 66 193 71 11 5 63 23 115 41 l95 32 140 140 c147 146 203 207 188 206 -4
0 -30 -9 -58 -19z"/>
<path d="M3670 2046 c0 -65 -38 -214 -80 -316 -17 -41 -51 -133 -75 -205 -53
-155 -60 -239 -25 -311 35 -70 104 -83 156 -27 43 47 22 115 -46 143 -52 21
-37 88 72 318 69 147 149 256 235 323 32 24 36 34 34 79 -1 25 -2 26 -70 22
-44 -3 -88 2 -124 12 -30 9 -60 16 -66 16 -7 0 -11 -21 -11 -54z"/>
<path d="M130 2083 c0 -4 5 -15 10 -23 8 -13 10 -13 10 2 0 9 -4 20 -10 23 -5
3 -10 3 -10 -2z"/>
<path d="M2611 2049 c-32 -39 -32 -41 -15 -55 49 -39 124 -57 124 -29 0 8 -6
12 -14 9 -14 -6 -62 33 -53 43 3 2 22 -3 42 -13 35 -16 37 -16 55 2 20 21 37
74 24 74 -15 -1 -40 -24 -47 -42 -7 -21 -27 -24 -27 -5 0 7 7 23 16 35 14 20
14 22 -4 22 -11 0 -25 -7 -32 -15 -16 -19 -28 -19 -32 0 -2 9 -14 1 -37 -26z"/>
<path d="M152 2010 c0 -14 2 -19 5 -12 2 6 2 18 0 25 -3 6 -5 1 -5 -13z"/>
<path d="M161 1965 c-1 -21 15 -53 22 -45 2 3 -2 19 -9 35 -10 23 -13 25 -13
10z"/>
<path d="M3851 1885 c-30 -35 -70 -88 -90 -118 -58 -85 -160 -336 -161 -395 0
-7 13 -18 30 -23 55 -20 92 -122 58 -158 -11 -10 17 -42 142 -164 153 -148
155 -150 164 -124 6 15 13 27 18 27 7 0 99 187 95 193 -1 1 6 13 16 27 9 13
17 32 17 42 0 10 4 18 9 18 20 0 74 236 87 382 6 71 5 77 -14 80 -11 1 -83 65
-161 141 -78 75 -144 137 -149 136 -4 0 -31 -29 -61 -64z m209 -420 c10 -13 9
-15 -9 -15 -12 0 -21 6 -21 15 0 8 4 15 9 15 5 0 14 -7 21 -15z"/>
<path d="M720 902 c0 -5 19 -29 41 -53 41 -44 41 -44 52 -21 17 36 -12 76 -57
80 -20 2 -36 -1 -36 -6z"/>
</g>
</svg>
